<svg xmlns="http://www.w3.org/2000/svg" viewBox="0 0 64 64" id="male-student">
    <g>
        <path d="M52.13,45.67a2.9774,2.9774,0,0,0-1.97-2.06L38,39.51V35.17a.9005.9005,0,0,0-.03-.16c.21-.2.42-.4.63-.62,4.07-4.36,5.85-12.4,5.57-16.54l.02-4.08L32.71,16.95a2.8456,2.8456,0,0,1-1.42,0L19.81,13.77l.02,4.08c-.28,4.14,1.5,12.18,5.57,16.54.21.22.42.42.63.62a.9005.9005,0,0,0-.03.16v4.34L13.85,43.6a3.0057,3.0057,0,0,0-1.99,2.15L9.02,60.81A.9954.9954,0,0,0,10,62H54a.9954.9954,0,0,0,.98-1.19ZM36,39.66l-4,2.39-4-2.39V36.44a8.144,8.144,0,0,0,8,0ZM21.81,19.18l9.94,2.55a.8013.8013,0,0,0,.5,0l9.94-2.55c-.11,3.92-1.78,10.34-5.06,13.85A6.9276,6.9276,0,0,1,32,35.49a6.9276,6.9276,0,0,1-5.13-2.46C23.59,29.52,21.92,23.1,21.81,19.18ZM32,55.55c-6.42,0-9.36-6.55-10.7-12.35l1.38-.46,4.1,4.19a1.015,1.015,0,0,0,.72.3.9385.9385,0,0,0,.55-.17L31,45.09v8.02a1,1,0,0,0,2,0V45.09l2.95,1.97a.9385.9385,0,0,0,.55.17,1.015,1.015,0,0,0,.72-.3l4.1-4.19,1.38.46C41.36,49,38.42,55.55,32,55.55Z"></path>
        <path d="M32 32.64a4.102 4.102 0 004.0107-2.3437 1 1 0 10-1.8671-.7178A2.1746 2.1746 0 0132 30.64a2.1657 2.1657 0 01-2.15-1.0776 1 1 0 00-1.8608.7339A4.102 4.102 0 0032 32.64zM54.16 17.37a1.0092 1.0092 0 00-.99-.86H52.9V8.52a1.008 1.008 0 00-.73-.97L32.27 2.04a.9908.9908 0 00-.54 0L11.83 7.55a1.008 1.008 0 00-.73.97.9961.9961 0 00.73.96L31.73 15a.9313.9313 0 00.54 0L50.9 9.83v6.68h-.26a1.0092 1.0092 0 00-.99.86l-.83 6.02a1.0123 1.0123 0 00.24.8.9806.9806 0 00.75.34H54a.9806.9806 0 00.75-.34 1.0123 1.0123 0 00.24-.8zm-3.2 5.16l.56-4.02h.77l.56 4.02z"></path>
    </g>
</svg>