<svg xmlns="http://www.w3.org/2000/svg" enable-background="new 0 0 24 24" viewBox="0 0 24 24" id="street">
    <g id="Layer_2">
        <path d="M8.03027 3.75781l-4 16c-.13477.53516.19141 1.07813.72754 1.21191C4.83887 20.99023 4.9209 21 5.00098 21c.44824 0 .85547-.30273.96875-.75781l4-16c.13477-.53516-.19141-1.07813-.72754-1.21191C8.7041 2.89258 8.16309 3.2207 8.03027 3.75781zM14.75781 3.03027c-.53613.13379-.8623.67676-.72754 1.21191l4 16C18.14355 20.69727 18.55078 21 18.99902 21c.08008 0 .16211-.00977.24316-.03027.53613-.13379.8623-.67676.72754-1.21191l-4-16C15.83594 3.22168 15.29297 2.89355 14.75781 3.03027zM12 17c-.55273 0-1 .44727-1 1v2c0 .55273.44727 1 1 1s1-.44727 1-1v-2C13 17.44727 12.55273 17 12 17zM13 12c0-.55273-.44727-1-1-1s-1 .44727-1 1v2c0 .55273.44727 1 1 1s1-.44727 1-1V12zM13 6c0-.55273-.44727-1-1-1s-1 .44727-1 1v2c0 .55273.44727 1 1 1s1-.44727 1-1V6z"></path>
    </g>
</svg>